<mxfile host="app.diagrams.net" agent="Mozilla/5.0 (Windows NT 10.0; Win64; x64) AppleWebKit/537.36 (KHTML, like Gecko) Chrome/130.0.0.0 Safari/537.36" version="24.8.4">
  <diagram name="Page-1" id="xVuCuOv_V19hbwxP0NJ1">
    <mxGraphModel grid="1" page="1" gridSize="10" guides="1" tooltips="1" connect="1" arrows="1" fold="1" pageScale="1" pageWidth="850" pageHeight="1100" math="0" shadow="0">
      <root>
        <mxCell id="0" />
        <mxCell id="1" parent="0" />
        <mxCell id="eyYiD7Q82OWnno_qOrs9-1" value="&lt;font style=&quot;font-size: 16px;&quot;&gt;Place order&lt;/font&gt;" style="rounded=1;whiteSpace=wrap;html=1;" vertex="1" parent="1">
          <mxGeometry x="170" y="160" width="120" height="50" as="geometry" />
        </mxCell>
        <mxCell id="eyYiD7Q82OWnno_qOrs9-2" value="&lt;font style=&quot;font-size: 16px;&quot;&gt;authorize payment&lt;/font&gt;" style="rounded=1;whiteSpace=wrap;html=1;" vertex="1" parent="1">
          <mxGeometry x="480" y="160" width="120" height="50" as="geometry" />
        </mxCell>
        <mxCell id="eyYiD7Q82OWnno_qOrs9-3" value="&lt;font style=&quot;font-size: 16px;&quot;&gt;processing&lt;/font&gt;" style="rounded=0;whiteSpace=wrap;html=1;" vertex="1" parent="1">
          <mxGeometry x="330" y="160" width="120" height="50" as="geometry" />
        </mxCell>
        <mxCell id="eyYiD7Q82OWnno_qOrs9-4" value="&lt;font style=&quot;font-size: 16px;&quot;&gt;not approved&lt;/font&gt;" style="rounded=0;whiteSpace=wrap;html=1;" vertex="1" parent="1">
          <mxGeometry x="630" y="160" width="120" height="50" as="geometry" />
        </mxCell>
        <mxCell id="eyYiD7Q82OWnno_qOrs9-5" value="&lt;font style=&quot;font-size: 16px;&quot;&gt;captured&lt;/font&gt;" style="rounded=0;whiteSpace=wrap;html=1;" vertex="1" parent="1">
          <mxGeometry x="170" y="280" width="120" height="50" as="geometry" />
        </mxCell>
        <mxCell id="eyYiD7Q82OWnno_qOrs9-6" value="&lt;font style=&quot;font-size: 16px;&quot;&gt;Approved&lt;/font&gt;" style="rounded=0;whiteSpace=wrap;html=1;" vertex="1" parent="1">
          <mxGeometry x="635" y="270" width="120" height="50" as="geometry" />
        </mxCell>
        <mxCell id="eyYiD7Q82OWnno_qOrs9-7" value="&lt;font style=&quot;font-size: 16px;&quot;&gt;invoice and transaction&lt;/font&gt;&lt;div&gt;&lt;font size=&quot;3&quot;&gt;[invotion:paid]&lt;/font&gt;&lt;/div&gt;" style="rounded=1;whiteSpace=wrap;html=1;" vertex="1" parent="1">
          <mxGeometry x="170" y="400" width="120" height="90" as="geometry" />
        </mxCell>
        <mxCell id="eyYiD7Q82OWnno_qOrs9-8" value="&lt;font style=&quot;font-size: 14px;&quot;&gt;invoice and&lt;/font&gt;&lt;div&gt;&lt;font style=&quot;font-size: 15px;&quot;&gt;transmission&lt;/font&gt;&lt;/div&gt;&lt;div&gt;&lt;font style=&quot;font-size: 15px;&quot;&gt;[invoice:completed]&lt;/font&gt;&lt;/div&gt;" style="rounded=1;whiteSpace=wrap;html=1;" vertex="1" parent="1">
          <mxGeometry x="630" y="390" width="140" height="90" as="geometry" />
        </mxCell>
        <mxCell id="eyYiD7Q82OWnno_qOrs9-14" value="&lt;font style=&quot;font-size: 15px;&quot;&gt;Credit Card System&lt;/font&gt;" style="shape=umlFrame;whiteSpace=wrap;html=1;pointerEvents=0;width=140;height=40;" vertex="1" parent="1">
          <mxGeometry x="50" y="40" width="780" height="570" as="geometry" />
        </mxCell>
        <mxCell id="eyYiD7Q82OWnno_qOrs9-15" value="" style="ellipse;html=1;shape=startState;fillColor=#000000;strokeColor=#ff0000;" vertex="1" parent="1">
          <mxGeometry x="74" y="174" width="30" height="30" as="geometry" />
        </mxCell>
        <mxCell id="eyYiD7Q82OWnno_qOrs9-16" value="" style="edgeStyle=orthogonalEdgeStyle;html=1;verticalAlign=bottom;endArrow=open;endSize=8;strokeColor=#ff0000;rounded=0;" edge="1" parent="1">
          <mxGeometry relative="1" as="geometry">
            <mxPoint x="175" y="189" as="targetPoint" />
            <mxPoint x="99" y="188" as="sourcePoint" />
          </mxGeometry>
        </mxCell>
        <mxCell id="eyYiD7Q82OWnno_qOrs9-18" value="" style="ellipse;html=1;shape=endState;fillColor=#000000;strokeColor=#ff0000;" vertex="1" parent="1">
          <mxGeometry x="778" y="171" width="30" height="30" as="geometry" />
        </mxCell>
        <mxCell id="eyYiD7Q82OWnno_qOrs9-21" value="" style="endArrow=open;endFill=1;endSize=12;html=1;rounded=0;entryX=0;entryY=0.5;entryDx=0;entryDy=0;" edge="1" parent="1" target="eyYiD7Q82OWnno_qOrs9-18">
          <mxGeometry width="160" relative="1" as="geometry">
            <mxPoint x="750" y="184" as="sourcePoint" />
            <mxPoint x="808" y="184" as="targetPoint" />
          </mxGeometry>
        </mxCell>
        <mxCell id="eyYiD7Q82OWnno_qOrs9-22" value="" style="endArrow=open;endFill=1;endSize=12;html=1;rounded=0;exitX=1;exitY=0.5;exitDx=0;exitDy=0;entryX=0;entryY=0.5;entryDx=0;entryDy=0;" edge="1" parent="1" source="eyYiD7Q82OWnno_qOrs9-1" target="eyYiD7Q82OWnno_qOrs9-3">
          <mxGeometry width="160" relative="1" as="geometry">
            <mxPoint x="280" y="340" as="sourcePoint" />
            <mxPoint x="440" y="340" as="targetPoint" />
          </mxGeometry>
        </mxCell>
        <mxCell id="eyYiD7Q82OWnno_qOrs9-23" value="" style="endArrow=open;endFill=1;endSize=12;html=1;rounded=0;exitX=1;exitY=0.5;exitDx=0;exitDy=0;entryX=0;entryY=0.5;entryDx=0;entryDy=0;" edge="1" parent="1" source="eyYiD7Q82OWnno_qOrs9-3" target="eyYiD7Q82OWnno_qOrs9-2">
          <mxGeometry width="160" relative="1" as="geometry">
            <mxPoint x="280" y="340" as="sourcePoint" />
            <mxPoint x="440" y="340" as="targetPoint" />
          </mxGeometry>
        </mxCell>
        <mxCell id="eyYiD7Q82OWnno_qOrs9-24" value="" style="endArrow=open;endFill=1;endSize=12;html=1;rounded=0;exitX=0.5;exitY=1;exitDx=0;exitDy=0;" edge="1" parent="1" source="eyYiD7Q82OWnno_qOrs9-7" target="eyYiD7Q82OWnno_qOrs9-26">
          <mxGeometry width="160" relative="1" as="geometry">
            <mxPoint x="280" y="340" as="sourcePoint" />
            <mxPoint x="380" y="340" as="targetPoint" />
            <Array as="points" />
          </mxGeometry>
        </mxCell>
        <mxCell id="eyYiD7Q82OWnno_qOrs9-26" value="Composite State" style="swimlane;fontStyle=1;align=center;verticalAlign=middle;childLayout=stackLayout;horizontal=1;startSize=20;horizontalStack=0;resizeParent=0;resizeLast=1;container=0;fontColor=#000000;collapsible=0;rounded=1;arcSize=30;strokeColor=#ff0000;fillColor=#ffffc0;swimlaneFillColor=#ffffc0;dropTarget=0;" vertex="1" parent="1">
          <mxGeometry x="149" y="526" width="160" height="60" as="geometry" />
        </mxCell>
        <mxCell id="eyYiD7Q82OWnno_qOrs9-27" value="&lt;font style=&quot;font-size: 16px;&quot;&gt;ivoice open for refund&lt;/font&gt;" style="text;html=1;strokeColor=none;fillColor=none;align=center;verticalAlign=middle;spacingLeft=4;spacingRight=4;whiteSpace=wrap;overflow=hidden;rotatable=0;fontColor=#000000;" vertex="1" parent="eyYiD7Q82OWnno_qOrs9-26">
          <mxGeometry y="20" width="160" height="40" as="geometry" />
        </mxCell>
        <mxCell id="eyYiD7Q82OWnno_qOrs9-30" value="Composite State" style="swimlane;fontStyle=1;align=center;verticalAlign=middle;childLayout=stackLayout;horizontal=1;startSize=20;horizontalStack=0;resizeParent=0;resizeLast=1;container=0;fontColor=#000000;collapsible=0;rounded=1;arcSize=30;strokeColor=#ff0000;fillColor=#ffffc0;swimlaneFillColor=#ffffc0;dropTarget=0;" vertex="1" parent="1">
          <mxGeometry x="621" y="520" width="160" height="60" as="geometry" />
        </mxCell>
        <mxCell id="eyYiD7Q82OWnno_qOrs9-31" value="&lt;font style=&quot;font-size: 16px;&quot;&gt;invoice open for void or capture&lt;/font&gt;" style="text;html=1;strokeColor=none;fillColor=none;align=center;verticalAlign=middle;spacingLeft=4;spacingRight=4;whiteSpace=wrap;overflow=hidden;rotatable=0;fontColor=#000000;" vertex="1" parent="eyYiD7Q82OWnno_qOrs9-30">
          <mxGeometry y="20" width="160" height="40" as="geometry" />
        </mxCell>
        <mxCell id="eyYiD7Q82OWnno_qOrs9-34" value="" style="endArrow=open;endFill=1;endSize=12;html=1;rounded=0;exitX=0.5;exitY=1;exitDx=0;exitDy=0;entryX=0.5;entryY=0;entryDx=0;entryDy=0;" edge="1" parent="1" source="eyYiD7Q82OWnno_qOrs9-8" target="eyYiD7Q82OWnno_qOrs9-30">
          <mxGeometry width="160" relative="1" as="geometry">
            <mxPoint x="280" y="340" as="sourcePoint" />
            <mxPoint x="440" y="340" as="targetPoint" />
          </mxGeometry>
        </mxCell>
        <mxCell id="eyYiD7Q82OWnno_qOrs9-35" value="" style="endArrow=open;endFill=1;endSize=12;html=1;rounded=0;exitX=1;exitY=0.5;exitDx=0;exitDy=0;entryX=0;entryY=0.5;entryDx=0;entryDy=0;" edge="1" parent="1" source="eyYiD7Q82OWnno_qOrs9-2" target="eyYiD7Q82OWnno_qOrs9-4">
          <mxGeometry width="160" relative="1" as="geometry">
            <mxPoint x="280" y="340" as="sourcePoint" />
            <mxPoint x="440" y="340" as="targetPoint" />
          </mxGeometry>
        </mxCell>
        <mxCell id="eyYiD7Q82OWnno_qOrs9-36" value="" style="endArrow=open;endFill=1;endSize=12;html=1;rounded=0;exitX=0.5;exitY=1;exitDx=0;exitDy=0;entryX=0.5;entryY=0;entryDx=0;entryDy=0;" edge="1" parent="1" source="eyYiD7Q82OWnno_qOrs9-1" target="eyYiD7Q82OWnno_qOrs9-5">
          <mxGeometry width="160" relative="1" as="geometry">
            <mxPoint x="280" y="340" as="sourcePoint" />
            <mxPoint x="440" y="340" as="targetPoint" />
          </mxGeometry>
        </mxCell>
        <mxCell id="eyYiD7Q82OWnno_qOrs9-37" value="" style="endArrow=open;endFill=1;endSize=12;html=1;rounded=0;exitX=0.5;exitY=1;exitDx=0;exitDy=0;entryX=0.5;entryY=0;entryDx=0;entryDy=0;" edge="1" parent="1" source="eyYiD7Q82OWnno_qOrs9-5" target="eyYiD7Q82OWnno_qOrs9-7">
          <mxGeometry width="160" relative="1" as="geometry">
            <mxPoint x="280" y="340" as="sourcePoint" />
            <mxPoint x="440" y="340" as="targetPoint" />
          </mxGeometry>
        </mxCell>
        <mxCell id="eyYiD7Q82OWnno_qOrs9-38" value="" style="endArrow=open;endFill=1;endSize=12;html=1;rounded=0;exitX=0.5;exitY=1;exitDx=0;exitDy=0;entryX=0.5;entryY=0;entryDx=0;entryDy=0;" edge="1" parent="1" source="eyYiD7Q82OWnno_qOrs9-4" target="eyYiD7Q82OWnno_qOrs9-6">
          <mxGeometry width="160" relative="1" as="geometry">
            <mxPoint x="280" y="340" as="sourcePoint" />
            <mxPoint x="440" y="340" as="targetPoint" />
          </mxGeometry>
        </mxCell>
        <mxCell id="eyYiD7Q82OWnno_qOrs9-39" value="" style="endArrow=open;endFill=1;endSize=12;html=1;rounded=0;exitX=0.5;exitY=1;exitDx=0;exitDy=0;entryX=0.5;entryY=0;entryDx=0;entryDy=0;" edge="1" parent="1" source="eyYiD7Q82OWnno_qOrs9-6" target="eyYiD7Q82OWnno_qOrs9-8">
          <mxGeometry width="160" relative="1" as="geometry">
            <mxPoint x="280" y="340" as="sourcePoint" />
            <mxPoint x="440" y="340" as="targetPoint" />
          </mxGeometry>
        </mxCell>
        <mxCell id="eyYiD7Q82OWnno_qOrs9-43" value="&lt;font style=&quot;font-size: 16px;&quot;&gt;capture&lt;/font&gt;" style="rounded=1;whiteSpace=wrap;html=1;" vertex="1" parent="1">
          <mxGeometry x="385" y="360" width="110" height="30" as="geometry" />
        </mxCell>
        <mxCell id="eyYiD7Q82OWnno_qOrs9-44" value="" style="endArrow=open;endFill=1;endSize=12;html=1;rounded=0;exitX=0.25;exitY=0;exitDx=0;exitDy=0;entryX=1;entryY=0.25;entryDx=0;entryDy=0;" edge="1" parent="1" source="eyYiD7Q82OWnno_qOrs9-43" target="eyYiD7Q82OWnno_qOrs9-5">
          <mxGeometry width="160" relative="1" as="geometry">
            <mxPoint x="280" y="340" as="sourcePoint" />
            <mxPoint x="440" y="340" as="targetPoint" />
          </mxGeometry>
        </mxCell>
        <mxCell id="eyYiD7Q82OWnno_qOrs9-46" value="" style="endArrow=open;endFill=1;endSize=12;html=1;rounded=0;exitX=0;exitY=0;exitDx=0;exitDy=0;" edge="1" parent="1" source="eyYiD7Q82OWnno_qOrs9-30">
          <mxGeometry width="160" relative="1" as="geometry">
            <mxPoint x="280" y="340" as="sourcePoint" />
            <mxPoint x="467" y="390" as="targetPoint" />
          </mxGeometry>
        </mxCell>
      </root>
    </mxGraphModel>
  </diagram>
</mxfile>
